<mxfile host="app.diagrams.net" modified="2021-11-11T23:31:49.749Z" agent="5.0 (Windows NT 10.0; Win64; x64) AppleWebKit/537.36 (KHTML, like Gecko) Chrome/95.0.4638.69 Safari/537.36" etag="GwHFZ_jFMGOttV8lw2v9" version="15.5.6" type="github">
  <diagram id="mXoXmzpwPWdiyOOaUZza" name="Page-1">
    <mxGraphModel dx="2249" dy="1931" grid="1" gridSize="10" guides="1" tooltips="1" connect="1" arrows="1" fold="1" page="1" pageScale="1" pageWidth="827" pageHeight="1169" math="0" shadow="0">
      <root>
        <mxCell id="0" />
        <mxCell id="1" parent="0" />
        <mxCell id="KjTPUXjpZD4pEIFyjSXy-1" value="Application&lt;br&gt;(Class Library)" style="ellipse;whiteSpace=wrap;html=1;fillColor=#ffe6cc;strokeColor=#d79b00;" vertex="1" parent="1">
          <mxGeometry x="40" y="10" width="120" height="80" as="geometry" />
        </mxCell>
        <mxCell id="KjTPUXjpZD4pEIFyjSXy-2" value="Domain&lt;br&gt;(Class Library)" style="ellipse;whiteSpace=wrap;html=1;fillColor=#ffe6cc;strokeColor=#d79b00;" vertex="1" parent="1">
          <mxGeometry x="280" y="10" width="120" height="80" as="geometry" />
        </mxCell>
        <mxCell id="KjTPUXjpZD4pEIFyjSXy-3" value="Repository.InMemory&lt;br&gt;(Class Library)" style="ellipse;whiteSpace=wrap;html=1;fillColor=#ffe6cc;strokeColor=#d79b00;" vertex="1" parent="1">
          <mxGeometry x="510" y="10" width="120" height="80" as="geometry" />
        </mxCell>
        <mxCell id="KjTPUXjpZD4pEIFyjSXy-4" value="Web Api&lt;br&gt;(Console Application)" style="ellipse;whiteSpace=wrap;html=1;fillColor=#ffe6cc;strokeColor=#d79b00;" vertex="1" parent="1">
          <mxGeometry x="760" y="10" width="120" height="80" as="geometry" />
        </mxCell>
        <mxCell id="KjTPUXjpZD4pEIFyjSXy-5" value="" style="endArrow=classic;html=1;rounded=0;exitX=0.5;exitY=0;exitDx=0;exitDy=0;entryX=0.5;entryY=0;entryDx=0;entryDy=0;edgeStyle=orthogonalEdgeStyle;curved=1;" edge="1" parent="1" source="KjTPUXjpZD4pEIFyjSXy-1" target="KjTPUXjpZD4pEIFyjSXy-4">
          <mxGeometry width="50" height="50" relative="1" as="geometry">
            <mxPoint x="390" y="20" as="sourcePoint" />
            <mxPoint x="440" y="-30" as="targetPoint" />
            <Array as="points">
              <mxPoint x="100" y="-80" />
              <mxPoint x="820" y="-80" />
            </Array>
          </mxGeometry>
        </mxCell>
        <mxCell id="KjTPUXjpZD4pEIFyjSXy-11" value="" style="endArrow=classic;html=1;rounded=0;exitX=0.5;exitY=1;exitDx=0;exitDy=0;entryX=0.5;entryY=1;entryDx=0;entryDy=0;edgeStyle=orthogonalEdgeStyle;curved=1;" edge="1" parent="1" source="KjTPUXjpZD4pEIFyjSXy-3" target="KjTPUXjpZD4pEIFyjSXy-1">
          <mxGeometry width="50" height="50" relative="1" as="geometry">
            <mxPoint x="340" y="180" as="sourcePoint" />
            <mxPoint x="1007" y="190" as="targetPoint" />
            <Array as="points">
              <mxPoint x="570" y="140" />
              <mxPoint x="100" y="140" />
            </Array>
          </mxGeometry>
        </mxCell>
        <mxCell id="KjTPUXjpZD4pEIFyjSXy-16" value="" style="endArrow=classic;html=1;rounded=0;exitX=0.5;exitY=1;exitDx=0;exitDy=0;edgeStyle=orthogonalEdgeStyle;entryX=1;entryY=1;entryDx=0;entryDy=0;curved=1;" edge="1" parent="1" source="KjTPUXjpZD4pEIFyjSXy-4" target="KjTPUXjpZD4pEIFyjSXy-3">
          <mxGeometry width="50" height="50" relative="1" as="geometry">
            <mxPoint x="600" y="150" as="sourcePoint" />
            <mxPoint x="530" y="250" as="targetPoint" />
            <Array as="points">
              <mxPoint x="820" y="140" />
              <mxPoint x="612" y="140" />
            </Array>
          </mxGeometry>
        </mxCell>
        <mxCell id="KjTPUXjpZD4pEIFyjSXy-21" value="" style="endArrow=classic;html=1;rounded=0;entryX=1;entryY=0;entryDx=0;entryDy=0;edgeStyle=orthogonalEdgeStyle;curved=1;exitX=0;exitY=0;exitDx=0;exitDy=0;" edge="1" parent="1" source="KjTPUXjpZD4pEIFyjSXy-4" target="KjTPUXjpZD4pEIFyjSXy-1">
          <mxGeometry width="50" height="50" relative="1" as="geometry">
            <mxPoint x="700" y="-20" as="sourcePoint" />
            <mxPoint x="1177" y="-40" as="targetPoint" />
            <Array as="points">
              <mxPoint x="778" y="-50" />
              <mxPoint x="142" y="-50" />
            </Array>
          </mxGeometry>
        </mxCell>
        <mxCell id="KjTPUXjpZD4pEIFyjSXy-22" value="Web Api tiene dependencia de Aplicación" style="text;strokeColor=none;fillColor=none;spacingLeft=4;spacingRight=4;overflow=hidden;rotatable=0;points=[[0,0.5],[1,0.5]];portConstraint=eastwest;fontSize=12;" vertex="1" parent="1">
          <mxGeometry x="330" y="-50" width="236" height="30" as="geometry" />
        </mxCell>
        <mxCell id="KjTPUXjpZD4pEIFyjSXy-23" value="Aplicación tiene dependencia de Web Api" style="text;strokeColor=none;fillColor=none;spacingLeft=4;spacingRight=4;overflow=hidden;rotatable=0;points=[[0,0.5],[1,0.5]];portConstraint=eastwest;fontSize=12;" vertex="1" parent="1">
          <mxGeometry x="340" y="-110" width="240" height="30" as="geometry" />
        </mxCell>
        <mxCell id="KjTPUXjpZD4pEIFyjSXy-24" value="Repository.InMemory tiene dependencia de Aplicación" style="text;strokeColor=none;fillColor=none;spacingLeft=4;spacingRight=4;overflow=hidden;rotatable=0;points=[[0,0.5],[1,0.5]];portConstraint=eastwest;fontSize=12;" vertex="1" parent="1">
          <mxGeometry x="140" y="145" width="310" height="30" as="geometry" />
        </mxCell>
        <mxCell id="KjTPUXjpZD4pEIFyjSXy-25" value="Web Api tiene dependencia&#xa;de Repository.InMemory" style="text;strokeColor=none;fillColor=none;spacingLeft=4;spacingRight=4;overflow=hidden;rotatable=0;points=[[0,0.5],[1,0.5]];portConstraint=eastwest;fontSize=12;" vertex="1" parent="1">
          <mxGeometry x="600" y="140" width="180" height="40" as="geometry" />
        </mxCell>
        <mxCell id="KjTPUXjpZD4pEIFyjSXy-26" value="Application&amp;nbsp;Unit Tests&lt;br&gt;(Console Application)" style="ellipse;whiteSpace=wrap;html=1;fillColor=#d5e8d4;strokeColor=#82b366;" vertex="1" parent="1">
          <mxGeometry x="40" y="400" width="120" height="80" as="geometry" />
        </mxCell>
        <mxCell id="KjTPUXjpZD4pEIFyjSXy-27" value="Domain Unit Tests&lt;br&gt;(Console Application)" style="ellipse;whiteSpace=wrap;html=1;fillColor=#d5e8d4;strokeColor=#82b366;" vertex="1" parent="1">
          <mxGeometry x="280" y="400" width="120" height="80" as="geometry" />
        </mxCell>
        <mxCell id="KjTPUXjpZD4pEIFyjSXy-28" value="Integration Tests&lt;br&gt;(Console Application)" style="ellipse;whiteSpace=wrap;html=1;fillColor=#d5e8d4;strokeColor=#82b366;" vertex="1" parent="1">
          <mxGeometry x="510" y="400" width="120" height="80" as="geometry" />
        </mxCell>
        <mxCell id="KjTPUXjpZD4pEIFyjSXy-29" value="Test Support&lt;br&gt;(Class Library)" style="ellipse;whiteSpace=wrap;html=1;fillColor=#d5e8d4;strokeColor=#82b366;" vertex="1" parent="1">
          <mxGeometry x="760" y="400" width="120" height="80" as="geometry" />
        </mxCell>
        <mxCell id="KjTPUXjpZD4pEIFyjSXy-30" value="" style="endArrow=classic;html=1;rounded=0;curved=1;exitX=0;exitY=0.5;exitDx=0;exitDy=0;entryX=0;entryY=1;entryDx=0;entryDy=0;edgeStyle=orthogonalEdgeStyle;" edge="1" parent="1" source="KjTPUXjpZD4pEIFyjSXy-26" target="KjTPUXjpZD4pEIFyjSXy-1">
          <mxGeometry width="50" height="50" relative="1" as="geometry">
            <mxPoint x="390" y="220" as="sourcePoint" />
            <mxPoint x="440" y="170" as="targetPoint" />
            <Array as="points">
              <mxPoint x="-10" y="440" />
              <mxPoint x="-10" y="78" />
            </Array>
          </mxGeometry>
        </mxCell>
        <mxCell id="KjTPUXjpZD4pEIFyjSXy-31" value="Application &#xa;Unit Tests&#xa;tiene dependencia &#xa;de Application" style="text;strokeColor=none;fillColor=none;spacingLeft=4;spacingRight=4;overflow=hidden;rotatable=0;points=[[0,0.5],[1,0.5]];portConstraint=eastwest;fontSize=12;" vertex="1" parent="1">
          <mxGeometry x="-120" y="230" width="120" height="80" as="geometry" />
        </mxCell>
        <mxCell id="KjTPUXjpZD4pEIFyjSXy-32" value="" style="endArrow=classic;html=1;rounded=0;exitX=0.5;exitY=1;exitDx=0;exitDy=0;entryX=1;entryY=1;entryDx=0;entryDy=0;edgeStyle=orthogonalEdgeStyle;curved=1;" edge="1" parent="1" source="KjTPUXjpZD4pEIFyjSXy-26" target="KjTPUXjpZD4pEIFyjSXy-29">
          <mxGeometry width="50" height="50" relative="1" as="geometry">
            <mxPoint x="330" y="630" as="sourcePoint" />
            <mxPoint x="1050" y="630" as="targetPoint" />
            <Array as="points">
              <mxPoint x="100" y="610" />
              <mxPoint x="862" y="610" />
              <mxPoint x="862" y="468" />
            </Array>
          </mxGeometry>
        </mxCell>
        <mxCell id="KjTPUXjpZD4pEIFyjSXy-33" value="Application Unit Tests tiene dependencia de Test Support" style="text;strokeColor=none;fillColor=none;spacingLeft=4;spacingRight=4;overflow=hidden;rotatable=0;points=[[0,0.5],[1,0.5]];portConstraint=eastwest;fontSize=12;" vertex="1" parent="1">
          <mxGeometry x="260" y="610" width="330" height="30" as="geometry" />
        </mxCell>
        <mxCell id="KjTPUXjpZD4pEIFyjSXy-34" value="" style="endArrow=classic;html=1;rounded=0;curved=1;exitX=1;exitY=0.5;exitDx=0;exitDy=0;entryX=1;entryY=0.5;entryDx=0;entryDy=0;edgeStyle=orthogonalEdgeStyle;" edge="1" parent="1" source="KjTPUXjpZD4pEIFyjSXy-27" target="KjTPUXjpZD4pEIFyjSXy-2">
          <mxGeometry width="50" height="50" relative="1" as="geometry">
            <mxPoint x="290" y="290" as="sourcePoint" />
            <mxPoint x="307.57359312880726" y="-71.71572875253833" as="targetPoint" />
            <Array as="points">
              <mxPoint x="480" y="440" />
              <mxPoint x="480" y="50" />
            </Array>
          </mxGeometry>
        </mxCell>
        <mxCell id="KjTPUXjpZD4pEIFyjSXy-35" value="Domain Unit &#xa;Tests tiene &#xa;dependencia &#xa;de Domain" style="text;strokeColor=none;fillColor=none;spacingLeft=4;spacingRight=4;overflow=hidden;rotatable=0;points=[[0,0.5],[1,0.5]];portConstraint=eastwest;fontSize=12;" vertex="1" parent="1">
          <mxGeometry x="480" y="230" width="80" height="90" as="geometry" />
        </mxCell>
        <mxCell id="KjTPUXjpZD4pEIFyjSXy-36" value="" style="endArrow=classic;html=1;rounded=0;exitX=0.5;exitY=1;exitDx=0;exitDy=0;entryX=0.5;entryY=1;entryDx=0;entryDy=0;edgeStyle=orthogonalEdgeStyle;curved=1;" edge="1" parent="1" source="KjTPUXjpZD4pEIFyjSXy-27" target="KjTPUXjpZD4pEIFyjSXy-29">
          <mxGeometry width="50" height="50" relative="1" as="geometry">
            <mxPoint x="430" y="540" as="sourcePoint" />
            <mxPoint x="1150" y="540" as="targetPoint" />
            <Array as="points">
              <mxPoint x="340" y="540" />
              <mxPoint x="820" y="540" />
            </Array>
          </mxGeometry>
        </mxCell>
        <mxCell id="KjTPUXjpZD4pEIFyjSXy-37" value="Domain Unit Tests tiene dependencia de Test Support" style="text;strokeColor=none;fillColor=none;spacingLeft=4;spacingRight=4;overflow=hidden;rotatable=0;points=[[0,0.5],[1,0.5]];portConstraint=eastwest;fontSize=12;" vertex="1" parent="1">
          <mxGeometry x="414" y="540" width="306" height="30" as="geometry" />
        </mxCell>
        <mxCell id="KjTPUXjpZD4pEIFyjSXy-38" value="" style="endArrow=classic;html=1;rounded=0;curved=1;exitX=0.567;exitY=0.025;exitDx=0;exitDy=0;entryX=1;entryY=0.5;entryDx=0;entryDy=0;edgeStyle=orthogonalEdgeStyle;exitPerimeter=0;" edge="1" parent="1" source="KjTPUXjpZD4pEIFyjSXy-28" target="KjTPUXjpZD4pEIFyjSXy-4">
          <mxGeometry width="50" height="50" relative="1" as="geometry">
            <mxPoint x="820" y="290" as="sourcePoint" />
            <mxPoint x="820" y="-100" as="targetPoint" />
            <Array as="points">
              <mxPoint x="578" y="350" />
              <mxPoint x="930" y="350" />
              <mxPoint x="930" y="50" />
            </Array>
          </mxGeometry>
        </mxCell>
        <mxCell id="KjTPUXjpZD4pEIFyjSXy-39" value="Integration Tests tiene dependencia de Web Api" style="text;strokeColor=none;fillColor=none;spacingLeft=4;spacingRight=4;overflow=hidden;rotatable=0;points=[[0,0.5],[1,0.5]];portConstraint=eastwest;fontSize=12;" vertex="1" parent="1">
          <mxGeometry x="590" y="310" width="270" height="30" as="geometry" />
        </mxCell>
        <mxCell id="KjTPUXjpZD4pEIFyjSXy-41" value="Proyecto y relaciones" style="text;strokeColor=none;fillColor=none;spacingLeft=4;spacingRight=4;overflow=hidden;rotatable=0;points=[[0,0.5],[1,0.5]];portConstraint=eastwest;fontSize=40;" vertex="1" parent="1">
          <mxGeometry x="290" y="-230" width="420" height="110" as="geometry" />
        </mxCell>
        <mxCell id="KjTPUXjpZD4pEIFyjSXy-42" value="Aplicación" style="text;strokeColor=none;fillColor=none;spacingLeft=4;spacingRight=4;overflow=hidden;rotatable=0;points=[[0,0.5],[1,0.5]];portConstraint=eastwest;fontSize=40;" vertex="1" parent="1">
          <mxGeometry x="-240" y="10" width="210" height="110" as="geometry" />
        </mxCell>
        <mxCell id="KjTPUXjpZD4pEIFyjSXy-43" value="Tests" style="text;strokeColor=none;fillColor=none;spacingLeft=4;spacingRight=4;overflow=hidden;rotatable=0;points=[[0,0.5],[1,0.5]];portConstraint=eastwest;fontSize=40;" vertex="1" parent="1">
          <mxGeometry x="-190" y="400" width="210" height="110" as="geometry" />
        </mxCell>
      </root>
    </mxGraphModel>
  </diagram>
</mxfile>
